<svg xmlns="http://www.w3.org/2000/svg"  viewBox="0 0 64 64" width="96px" height="96px"><path d="M 32 8 C 22.358 8 14.258437 15.295297 13.148438 24.779297 C 9.3424375 27.686297 7.0136719 32.134656 7.0136719 36.597656 C 7.0136719 43.026656 11.887391 47.542453 19.525391 48.314453 C 22.295391 52.463453 26.98 55 32 55 C 37.02 55 41.704609 52.463453 44.474609 48.314453 C 52.112609 47.542453 56.986328 43.026656 56.986328 36.597656 C 56.986328 32.134656 54.657562 27.686297 50.851562 24.779297 C 50.731137 23.750367 50.514346 22.754104 50.236328 21.783203 C 56.369079 20.637114 58 15 58 15 C 58 15 55.597782 14.466339 53.148438 15.003906 C 53.373248 12.876722 53 11 53 11 C 53 11 49.22367 11.489654 47.666016 16.318359 C 44.230454 11.293186 38.468599 8 32 8 z M 32 12 C 37.288371 12 41.980844 14.788049 44.650391 18.998047 C 43.267314 18.170122 41.323646 17.504739 38.923828 18 C 36.500828 18.5 34.5 21 32 21 C 29.5 21 27.499172 18.5 25.076172 18 C 22.676354 17.504739 20.732686 18.170122 19.349609 18.998047 C 22.019156 14.788049 26.711629 12 32 12 z M 25 22.5 C 26.406 22.5 27.373906 23.048813 28.003906 23.632812 C 28.629906 24.212812 28.287406 25.250328 27.441406 25.361328 C 26.840406 25.440328 26.041 25.5 25 25.5 C 23.821 25.5 22.952078 25.268281 22.330078 24.988281 C 21.558078 24.639281 21.544687 23.550781 22.304688 23.175781 C 23.009688 22.826781 23.95 22.5 25 22.5 z M 39 22.5 C 40.05 22.5 40.990313 22.825828 41.695312 23.173828 C 42.455312 23.549828 42.441922 24.637328 41.669922 24.986328 C 41.047922 25.267328 40.179 25.5 39 25.5 C 37.959 25.5 37.158641 25.440328 36.556641 25.361328 C 35.711641 25.250328 35.370094 24.211813 35.996094 23.632812 C 36.627094 23.048812 37.594 22.5 39 22.5 z M 16.402344 27.333984 C 17.566859 27.602058 19.463248 27.985261 21.912109 28.318359 C 21.851712 28.366781 21.78855 28.4075 21.728516 28.457031 C 20.875516 29.160031 20.754031 30.421437 21.457031 31.273438 C 22.160031 32.125437 23.421484 32.244969 24.271484 31.542969 C 26.403484 29.783969 28.787 29 32 29 C 35.213 29 37.596516 29.783969 39.728516 31.542969 C 40.100516 31.849969 40.550047 32 40.998047 32 C 41.574047 32 42.146969 31.752437 42.542969 31.273438 C 43.245969 30.421437 43.124484 29.160031 42.271484 28.457031 C 42.21145 28.4075 42.148288 28.366781 42.087891 28.318359 C 44.536752 27.985261 46.433141 27.602058 47.597656 27.333984 C 47.671606 27.40203 47.741554 27.474289 47.826172 27.53125 C 50.960172 29.63925 52.984375 33.198656 52.984375 36.597656 C 52.984375 41.961656 47.930219 44.146344 43.199219 44.402344 C 42.519219 44.439344 41.904359 44.819109 41.568359 45.412109 C 39.612359 48.858109 35.946 51 32 51 C 28.054 51 24.387641 48.858109 22.431641 45.412109 C 22.095641 44.819109 21.480781 44.439344 20.800781 44.402344 C 16.069781 44.145344 11.015625 41.961656 11.015625 36.597656 C 11.015625 33.198656 13.039828 29.64025 16.173828 27.53125 C 16.258446 27.474289 16.328394 27.40203 16.402344 27.333984 z M 44.087891 35.005859 C 43.703029 35.005924 43.310359 35.103516 42.958984 35.291016 C 41.580984 36.029016 39.121688 37.066781 36.929688 37.550781 C 34.607688 38.062781 31.880375 38.409 29.484375 38.5 C 28.703375 38.53 28.068922 39.162078 28.044922 39.955078 C 28.019922 40.784078 28.672 41.475 29.5 41.5 C 32.089 41.578 35.117266 41.388188 37.697266 40.992188 C 40.497266 40.562188 43.567828 39.594953 45.173828 38.626953 C 46.120828 38.055953 46.344422 36.772562 45.732422 35.851562 C 45.349922 35.275938 44.729326 35.005752 44.087891 35.005859 z"/></svg>